<svg width="1644" height="600" viewBox="0 0 1644 600" fill="none" xmlns="http://www.w3.org/2000/svg">
<g clip-path="url(#clip0_86_10)">
<path d="M1264.05 1033.71L1305.15 1004.94C1346.25 976.336 1428.45 918.793 1398.31 861.422C1368.17 804.052 1225.69 746.508 1176.37 689.138C1127.05 631.767 1170.89 574.224 1203.77 516.853C1236.65 459.483 1258.57 401.94 1206.51 344.569C1154.45 287.198 1028.41 229.655 1014.71 172.284C1001.01 114.914 1099.65 57.3707 1148.97 28.7715L1198.29 0H1644V28.7715C1644 57.3707 1644 114.914 1644 172.284C1644 229.655 1644 287.198 1644 344.569C1644 401.94 1644 459.483 1644 516.853C1644 574.224 1644 631.767 1644 689.138C1644 746.508 1644 804.052 1644 861.422C1644 918.793 1644 976.336 1644 1004.94V1033.71H1264.05Z" fill="#7EBAEE"/>
<path d="M1099.65 1033.71L1132.53 1004.94C1165.41 976.336 1231.17 918.793 1201.03 861.422C1170.89 804.052 1044.85 746.508 995.534 689.138C946.214 631.767 973.614 574.224 1006.49 516.853C1039.37 459.483 1077.73 401.94 1047.59 344.569C1017.45 287.198 918.814 229.655 924.294 172.284C929.774 114.914 1039.37 57.3707 1094.17 28.7715L1148.97 0H1200.12L1150.8 28.7715C1101.48 57.3707 1002.84 114.914 1016.54 172.284C1030.24 229.655 1156.28 287.198 1208.34 344.569C1260.4 401.94 1238.48 459.483 1205.6 516.853C1172.72 574.224 1128.88 631.767 1178.2 689.138C1227.52 746.508 1370 804.052 1400.14 861.422C1430.28 918.793 1348.08 976.336 1306.98 1004.94L1265.88 1033.71H1099.65Z" fill="#76A8D5"/>
<path d="M902.374 1033.71L951.695 1004.94C1001.01 976.336 1099.65 918.793 1077.73 861.422C1055.81 804.052 913.335 746.508 864.015 689.138C814.695 631.767 858.535 574.224 894.155 516.853C929.775 459.483 957.174 401.94 916.075 344.569C874.975 287.198 765.375 229.655 770.855 172.284C776.335 114.914 896.895 57.3707 957.174 28.7715L1017.45 0H1150.8L1096 28.7715C1041.2 57.3707 931.601 114.914 926.121 172.284C920.641 229.655 1019.28 287.198 1049.42 344.569C1079.56 401.94 1041.2 459.483 1008.32 516.853C975.441 574.224 948.041 631.767 997.361 689.138C1046.68 746.508 1172.72 804.052 1202.86 861.422C1233 918.793 1167.24 976.336 1134.36 1004.94L1101.48 1033.71H902.374Z" fill="#6D97BC"/>
<path d="M770.853 1033.71L831.133 1004.94C891.413 976.336 1011.97 918.793 1001.01 861.422C990.053 804.052 847.573 746.508 751.673 689.138C655.773 631.767 606.453 574.224 611.933 516.853C617.413 459.483 677.693 401.94 672.213 344.569C666.733 287.198 595.493 229.655 587.273 172.284C579.053 114.914 633.853 57.3707 661.253 28.7715L688.653 0H1019.28L958.999 28.7715C898.719 57.3707 778.159 114.914 772.679 172.284C767.199 229.655 876.799 287.198 917.899 344.569C958.999 401.94 931.599 459.483 895.979 516.853C860.359 574.224 816.519 631.767 865.839 689.138C915.159 746.508 1057.64 804.052 1079.56 861.422C1101.48 918.793 1002.84 976.336 953.519 1004.94L904.199 1033.71H770.853Z" fill="#6586A4"/>
<path d="M737.973 1033.71L792.773 1004.94C847.573 976.336 957.173 918.793 940.733 861.422C924.293 804.052 781.813 746.508 691.393 689.138C600.973 631.767 562.613 574.224 570.833 516.853C579.053 459.483 633.853 401.94 617.413 344.569C600.973 287.198 513.293 229.655 488.633 172.284C463.973 114.914 502.333 57.3707 521.513 28.7715L540.693 0H690.48L663.08 28.7715C635.68 57.3707 580.88 114.914 589.1 172.284C597.32 229.655 668.56 287.198 674.04 344.569C679.52 401.94 619.24 459.483 613.76 516.853C608.28 574.224 657.6 631.767 753.5 689.138C849.4 746.508 991.88 804.052 1002.84 861.422C1013.8 918.793 893.24 976.336 832.96 1004.94L772.68 1033.71H737.973Z" fill="#5C758C"/>
<path d="M606.452 1033.71L663.992 1004.94C721.532 976.336 836.612 918.793 831.132 861.422C825.652 804.052 699.612 746.508 620.152 689.138C540.692 631.767 507.812 574.224 513.292 516.853C518.772 459.483 562.612 401.94 535.212 344.569C507.812 287.198 409.172 229.655 384.512 172.284C359.852 114.914 409.172 57.3707 433.832 28.7715L458.492 0H542.519L523.339 28.7715C504.159 57.3707 465.799 114.914 490.459 172.284C515.119 229.655 602.799 287.198 619.239 344.569C635.679 401.94 580.879 459.483 572.659 516.853C564.439 574.224 602.799 631.767 693.219 689.138C783.639 746.508 926.119 804.052 942.559 861.422C958.999 918.793 849.399 976.336 794.599 1004.94L739.799 1033.71H606.452Z" fill="#536475"/>
<path d="M474.933 1033.71L548.913 1004.94C622.893 976.336 770.853 918.793 765.373 861.422C759.893 804.052 600.973 746.508 524.253 689.138C447.533 631.767 453.013 574.224 466.713 516.853C480.413 459.483 502.333 401.94 453.013 344.569C403.693 287.198 283.133 229.655 247.513 172.284C211.893 114.914 261.213 57.3707 285.873 28.7715L310.533 0H460.32L435.66 28.7715C411 57.3707 361.68 114.914 386.34 172.284C411 229.655 509.64 287.198 537.04 344.569C564.44 401.94 520.6 459.483 515.12 516.853C509.64 574.224 542.52 631.767 621.98 689.138C701.44 746.508 827.48 804.052 832.96 861.422C838.44 918.793 723.36 976.336 665.82 1004.94L608.28 1033.71H474.933Z" fill="#4A545F"/>
<path d="M343.414 1033.71L389.994 1004.94C436.574 976.336 529.734 918.793 518.774 861.422C507.814 804.052 392.734 746.508 324.234 689.138C255.734 631.767 233.814 574.224 236.554 516.853C239.294 459.483 266.694 401.94 250.254 344.569C233.814 287.198 173.534 229.655 140.654 172.284C107.774 114.914 102.294 57.3707 99.5545 28.7715L96.8145 0H312.361L287.701 28.7715C263.041 57.3707 213.721 114.914 249.341 172.284C284.961 229.655 405.521 287.198 454.841 344.569C504.161 401.94 482.241 459.483 468.541 516.853C454.841 574.224 449.361 631.767 526.081 689.138C602.801 746.508 761.721 804.052 767.201 861.422C772.681 918.793 624.721 976.336 550.741 1004.94L476.761 1033.71H343.414Z" fill="#40454A"/>
<path d="M0 1033.71V1004.94C0 976.336 0 918.793 0 861.422C0 804.052 0 746.508 0 689.138C0 631.767 0 574.224 0 516.853C0 459.483 0 401.94 0 344.569C0 287.198 0 229.655 0 172.284C0 114.914 0 57.3707 0 28.7715V0H98.64L101.38 28.7715C104.12 57.3707 109.6 114.914 142.48 172.284C175.36 229.655 235.64 287.198 252.08 344.569C268.52 401.94 241.12 459.483 238.38 516.853C235.64 574.224 257.56 631.767 326.06 689.138C394.56 746.508 509.64 804.052 520.6 861.422C531.56 918.793 438.4 976.336 391.82 1004.94L345.24 1033.71H0Z" fill="#363636"/>
</g>
<defs>
<clipPath id="clip0_86_10">
<rect width="1644" height="600" fill="white"/>
</clipPath>
</defs>
</svg>
