<svg width="725" height="600" viewBox="0 0 725 600" fill="none" xmlns="http://www.w3.org/2000/svg">
<g clip-path="url(#clip0_116_117)">
<path d="M651.789 1033.71L672.982 1004.94C694.175 976.336 736.56 918.793 721.018 861.422C705.477 804.052 632.01 746.509 606.579 689.138C581.147 631.767 603.753 574.224 620.707 516.853C637.661 459.483 648.964 401.94 622.12 344.569C595.276 287.198 530.285 229.655 523.221 172.284C516.157 114.914 567.019 57.3707 592.45 28.7715L617.881 0H847.703V28.7715C847.703 57.3707 847.703 114.914 847.703 172.284C847.703 229.655 847.703 287.198 847.703 344.569C847.703 401.94 847.703 459.483 847.703 516.853C847.703 574.224 847.703 631.767 847.703 689.138C847.703 746.509 847.703 804.052 847.703 861.422C847.703 918.793 847.703 976.336 847.703 1004.94V1033.71H651.789Z" fill="#7EBAEE"/>
<path d="M567.019 1033.71L583.973 1004.94C600.927 976.336 634.836 918.793 619.294 861.422C603.753 804.052 538.762 746.509 513.331 689.138C487.9 631.767 502.029 574.224 518.983 516.853C535.937 459.483 555.717 401.94 540.175 344.569C524.634 287.198 473.772 229.655 476.598 172.284C479.423 114.914 535.937 57.3707 564.194 28.7715L592.45 0H618.823L593.392 28.7715C567.961 57.3707 517.099 114.914 524.163 172.284C531.227 229.655 596.218 287.198 623.062 344.569C649.906 401.94 638.603 459.483 621.649 516.853C604.695 574.224 582.09 631.767 607.521 689.138C632.952 746.509 706.419 804.052 721.961 861.422C737.502 918.793 695.117 976.336 673.924 1004.94L652.731 1033.71H567.019Z" fill="#76A8D5"/>
<path d="M465.295 1033.71L490.727 1004.94C516.158 976.336 567.02 918.793 555.717 861.422C544.414 804.052 470.947 746.509 445.516 689.138C420.085 631.767 442.69 574.224 461.057 516.853C479.424 459.483 493.552 401.94 472.36 344.569C451.167 287.198 394.654 229.655 397.479 172.284C400.305 114.914 462.47 57.3707 493.552 28.7715L524.635 0H593.393L565.136 28.7715C536.879 57.3707 480.366 114.914 477.54 172.284C474.714 229.655 525.577 287.198 541.118 344.569C556.659 401.94 536.879 459.483 519.925 516.853C502.971 574.224 488.843 631.767 514.274 689.138C539.705 746.509 604.696 804.052 620.237 861.422C635.778 918.793 601.87 976.336 584.916 1004.94L567.962 1033.71H465.295Z" fill="#6D97BC"/>
<path d="M397.479 1033.71L428.562 1004.94C459.644 976.336 521.809 918.793 516.158 861.422C510.506 804.052 437.039 746.509 387.589 689.138C338.14 631.767 312.709 574.224 315.535 516.853C318.36 459.483 349.443 401.94 346.617 344.569C343.792 287.198 307.058 229.655 302.819 172.284C298.581 114.914 326.837 57.3707 340.966 28.7715L355.094 0H525.577L494.494 28.7715C463.412 57.3707 401.247 114.914 398.421 172.284C395.596 229.655 452.109 287.198 473.302 344.569C494.494 401.94 480.366 459.483 461.999 516.853C443.632 574.224 421.027 631.767 446.458 689.138C471.889 746.509 545.356 804.052 556.659 861.422C567.962 918.793 517.1 976.336 491.669 1004.94L466.237 1033.71H397.479Z" fill="#6586A4"/>
<path d="M380.525 1033.71L408.782 1004.94C437.038 976.336 493.552 918.793 485.075 861.422C476.598 804.052 403.13 746.509 356.507 689.138C309.883 631.767 290.103 574.224 294.342 516.853C298.58 459.483 326.837 401.94 318.36 344.569C309.883 287.198 264.672 229.655 251.957 172.284C239.241 114.914 259.021 57.3707 268.911 28.7715L278.801 0H356.036L341.907 28.7715C327.779 57.3707 299.522 114.914 303.761 172.284C307.999 229.655 344.733 287.198 347.559 344.569C350.384 401.94 319.302 459.483 316.476 516.853C313.651 574.224 339.082 631.767 388.531 689.138C437.98 746.509 511.448 804.052 517.099 861.422C522.751 918.793 460.586 976.336 429.503 1004.94L398.421 1033.71H380.525Z" fill="#5C758C"/>
<path d="M312.708 1033.71L342.378 1004.94C372.047 976.336 431.387 918.793 428.561 861.422C425.735 804.052 360.745 746.509 319.772 689.138C278.8 631.767 261.846 574.224 264.672 516.853C267.497 459.483 290.103 401.94 275.974 344.569C261.846 287.198 210.984 229.655 198.268 172.284C185.553 114.914 210.984 57.3707 223.699 28.7715L236.415 0H279.742L269.852 28.7715C259.962 57.3707 240.182 114.914 252.898 172.284C265.614 229.655 310.824 287.198 319.301 344.569C327.778 401.94 299.522 459.483 295.283 516.853C291.045 574.224 310.824 631.767 357.448 689.138C404.072 746.509 477.539 804.052 486.016 861.422C494.493 918.793 437.98 976.336 409.723 1004.94L381.466 1033.71H312.708Z" fill="#5C758C"/>
<path d="M244.891 1033.71L283.038 1004.94C321.185 976.336 397.478 918.793 394.652 861.422C391.827 804.052 309.882 746.509 270.322 689.138C230.763 631.767 233.589 574.224 240.653 516.853C247.717 459.483 259.02 401.94 233.589 344.569C208.158 287.198 145.993 229.655 127.626 172.284C109.259 114.914 134.69 57.3707 147.406 28.7715L160.121 0H237.356L224.641 28.7715C211.925 57.3707 186.494 114.914 199.21 172.284C211.925 229.655 262.787 287.198 276.916 344.569C291.044 401.94 268.439 459.483 265.613 516.853C262.787 574.224 279.741 631.767 320.714 689.138C361.686 746.509 426.677 804.052 429.502 861.422C432.328 918.793 372.989 976.336 343.319 1004.94L313.649 1033.71H244.891Z" fill="#40454A"/>
<path d="M177.075 1033.71L201.094 1004.94C225.112 976.336 273.148 918.793 267.497 861.422C261.846 804.052 202.506 746.509 167.186 689.138C131.865 631.767 120.562 574.224 121.975 516.853C123.388 459.483 137.516 401.94 129.039 344.569C120.562 287.198 89.4794 229.655 72.5253 172.284C55.5713 114.914 52.7456 57.3707 51.3328 28.7715L49.9199 0H161.063L148.348 28.7715C135.632 57.3707 110.201 114.914 128.568 172.284C146.935 229.655 209.1 287.198 234.531 344.569C259.962 401.94 248.659 459.483 241.595 516.853C234.531 574.224 231.705 631.767 271.265 689.138C310.824 746.509 392.769 804.052 395.594 861.422C398.42 918.793 322.127 976.336 283.98 1004.94L245.834 1033.71H177.075Z" fill="#40454A"/>
<path d="M0 1033.71V1004.94C0 976.336 0 918.793 0 861.422C0 804.052 0 746.509 0 689.138C0 631.767 0 574.224 0 516.853C0 459.483 0 401.94 0 344.569C0 287.198 0 229.655 0 172.284C0 114.914 0 57.3707 0 28.7715V0H50.8622L52.275 28.7715C53.6879 57.3707 56.5135 114.914 73.4676 172.284C90.4217 229.655 121.504 287.198 129.981 344.569C138.458 401.94 124.33 459.483 122.917 516.853C121.504 574.224 132.807 631.767 168.128 689.138C203.449 746.509 262.788 804.052 268.439 861.422C274.091 918.793 226.054 976.336 202.036 1004.94L178.018 1033.71H0Z" fill="#363636"/>
</g>
<defs>
<clipPath id="clip0_116_117">
<rect width="725" height="600" fill="white"/>
</clipPath>
</defs>
</svg>
