<svg width="41" height="56" viewBox="0 0 41 56" fill="none" xmlns="http://www.w3.org/2000/svg">
<g filter="url(#filter0_d_86_25)">
<path fill-rule="evenodd" clip-rule="evenodd" d="M10.6401 2H25.9999C30.7695 2 34.64 5.8705 34.64 10.6401C34.64 13.9825 32.7392 16.8832 29.9603 18.3199C32.7392 19.7567 34.64 22.6576 34.64 25.9999C34.64 30.7695 30.7695 34.64 25.9999 34.64C23.2868 34.64 20.8646 33.3876 19.2802 31.4298V41.3599C19.2802 46.1295 15.4097 50 10.6401 50C5.87054 50 2 46.1295 2 41.3599C2 38.0175 3.90078 35.1167 6.67971 33.6799C3.90078 32.2432 2 29.3423 2 25.9999C2 22.6576 3.90076 19.7567 6.67966 18.3199C3.90077 16.8832 2 13.9825 2 10.6401C2 5.8705 5.87054 2 10.6401 2ZM3.92 10.6401C3.92 6.9309 6.93091 3.92 10.6401 3.92H17.3598V17.3599H10.6401L10.6193 17.3599C6.91962 17.3487 3.92 14.3422 3.92 10.6401ZM17.3602 25.9086C17.3599 25.939 17.3598 25.9694 17.3598 25.9999C17.3598 26.0304 17.3599 26.0609 17.3602 26.0913V32.7198H10.6401C6.93091 32.72 3.92 29.7091 3.92 25.9999C3.92 22.2977 6.91974 19.2911 10.6195 19.2799L10.6401 19.2799H17.3598L17.3602 25.9086ZM19.2802 26.0804V25.9195C19.3233 22.2565 22.3026 19.2947 25.9723 19.2799H25.9999C26.0068 19.2799 26.0137 19.2799 26.0205 19.2799C29.7203 19.2911 32.72 22.2977 32.72 25.9999C32.72 29.7091 29.7091 32.72 25.9999 32.72C22.3175 32.72 19.3234 29.7526 19.2802 26.0804ZM20.5705 19.2799C20.0965 19.6635 19.6638 20.0961 19.2802 20.5701V19.2799H20.5705ZM26.0207 17.3599C26.0138 17.3599 26.0068 17.3599 25.9999 17.3599C25.9894 17.3599 25.9789 17.3599 25.9684 17.3599H19.2802V3.92H25.9999C29.7091 3.92 32.72 6.9309 32.72 10.6401C32.72 14.3422 29.7204 17.3487 26.0207 17.3599ZM10.6401 34.6399C6.93091 34.6399 3.92 37.6508 3.92 41.3599C3.92 45.0691 6.93091 48.08 10.6401 48.08C14.3493 48.08 17.3602 45.0691 17.3602 41.3599V34.6399H10.6401Z" fill="white"/>
</g>
<defs>
<filter id="filter0_d_86_25" x="0" y="0" width="40.6406" height="56" filterUnits="userSpaceOnUse" color-interpolation-filters="sRGB">
<feFlood flood-opacity="0" result="BackgroundImageFix"/>
<feColorMatrix in="SourceAlpha" type="matrix" values="0 0 0 0 0 0 0 0 0 0 0 0 0 0 0 0 0 0 127 0" result="hardAlpha"/>
<feOffset dx="2" dy="2"/>
<feGaussianBlur stdDeviation="2"/>
<feComposite in2="hardAlpha" operator="out"/>
<feColorMatrix type="matrix" values="0 0 0 0 0 0 0 0 0 0 0 0 0 0 0 0 0 0 0.5 0"/>
<feBlend mode="normal" in2="BackgroundImageFix" result="effect1_dropShadow_86_25"/>
<feBlend mode="normal" in="SourceGraphic" in2="effect1_dropShadow_86_25" result="shape"/>
</filter>
</defs>
</svg>
